<svg xmlns="http://www.w3.org/2000/svg" viewBox="0 0 1024 1024">
  <defs>
    <linearGradient id="bg" x1="0" y1="0" x2="1" y2="1">
      <stop offset="0%" stop-color="#1f2937"/>
      <stop offset="100%" stop-color="#4f46e5"/>
    </linearGradient>
    <linearGradient id="board" x1="0" y1="0" x2="1" y2="1">
      <stop offset="0%" stop-color="#f8fafc"/>
      <stop offset="100%" stop-color="#cbd5e1"/>
    </linearGradient>
  </defs>

  <rect x="72" y="72" width="880" height="880" rx="220" fill="url(#bg)"/>

  <rect x="214" y="282" width="596" height="412" rx="88" fill="url(#board)"/>
  <rect x="252" y="320" width="520" height="336" rx="56" fill="#111827"/>

  <g fill="#e5e7eb">
    <rect x="294" y="370" width="78" height="54" rx="16"/>
    <rect x="392" y="370" width="78" height="54" rx="16"/>
    <rect x="490" y="370" width="78" height="54" rx="16"/>
    <rect x="588" y="370" width="78" height="54" rx="16"/>
    <rect x="294" y="450" width="118" height="54" rx="16"/>
    <rect x="432" y="450" width="98" height="54" rx="16"/>
    <rect x="550" y="450" width="118" height="54" rx="16"/>
    <rect x="294" y="530" width="372" height="54" rx="16"/>
  </g>

  <path d="M700 408l54 42-54 42" fill="none" stroke="#22d3ee" stroke-linecap="round" stroke-linejoin="round" stroke-width="24"/>
  <path d="M764 344l54 42-54 42" fill="none" stroke="#a78bfa" stroke-linecap="round" stroke-linejoin="round" stroke-width="24"/>
</svg>
